<svg xmlns="http://www.w3.org/2000/svg" width="120" height="110" viewBox="0 0 31.75 29.104"><defs/><path fill="white" d="M3.969 0l1.323 5.292H0l5.292 23.812h21.166L31.75 5.292h-5.292L27.781 0H3.97zm11.906 2.646l.842 3.127 3.127.842-3.127.841-.842 3.127-.842-3.127-3.127-.841 3.127-.842.842-3.127zM8.599 6.615l.421 1.563 1.563.421-1.563.421-.421 1.563-.421-1.563L6.615 8.6l1.563-.421.421-1.563zm14.552 0l.421 1.563 1.563.421-1.563.421-.421 1.563-.421-1.563-1.563-.421 1.563-.421.421-1.563zm-7.276 7.064l6.615 11.456h1.323v1.323H7.938v-1.323H9.26l6.615-11.456zm0 5.291l-3.56 6.165h7.12l-3.56-6.165z"/></svg>