<svg xmlns="http://www.w3.org/2000/svg" width="120" height="110" viewBox="0 0 31.75 29.104"><defs/><rect width="33.867" height="33.867" x="-1.058" y="-2.381" fill="#3f5538" rx="4.233"/><path fill="#e9c149" d="M6.35 2.91l1.058 4.234H3.175l4.233 19.05h16.934l4.233-19.05h-4.233L25.4 2.91zm9.525 2.117l.673 2.502 2.502.673-2.502.674-.673 2.501-.673-2.501-2.502-.674 2.502-.673zm-5.82 3.175l.336 1.25 1.25.338-1.25.337-.337 1.25-.337-1.25-1.25-.337 1.25-.337zm11.64 0l.338 1.25 1.25.338-1.25.337-.337 1.25-.337-1.25-1.25-.337 1.25-.337zm-5.82 5.651l5.292 9.166h1.058v1.058H9.525V23.02h1.058zm0 4.234l-2.848 4.932h5.696z"/></svg>